<svg width="29" height="29" viewBox="0 0 29 29" fill="none" xmlns="http://www.w3.org/2000/svg">
<path d="M28.0735 26.4144L21.1715 19.2359C22.9461 17.1263 23.9185 14.472 23.9185 11.7087C23.9185 5.25264 18.6658 0 12.2097 0C5.75362 0 0.500977 5.25264 0.500977 11.7087C0.500977 18.1648 5.75362 23.4175 12.2097 23.4175C14.6334 23.4175 16.9431 22.6864 18.9178 21.2987L25.8723 28.5317C26.163 28.8335 26.5539 29 26.9729 29C27.3695 29 27.7457 28.8488 28.0313 28.5739C28.6381 27.99 28.6574 27.0217 28.0735 26.4144ZM12.2097 3.05445C16.9818 3.05445 20.864 6.93666 20.864 11.7087C20.864 16.4808 16.9818 20.363 12.2097 20.363C7.43764 20.363 3.55543 16.4808 3.55543 11.7087C3.55543 6.93666 7.43764 3.05445 12.2097 3.05445Z" fill="#777373"/>
</svg>
